<?xml version="1.0" encoding="utf-8"?>
<!-- Generator: Adobe Illustrator 22.0.1, SVG Export Plug-In . SVG Version: 6.00 Build 0)  -->
<svg version="1.1"
	 id="svg2197" inkscape:output_extension="org.inkscape.output.svg.inkscape" inkscape:version="0.48.1 " sodipodi:docname="BBC_iPlayer_logo.svg" sodipodi:version="0.32" xmlns:cc="http://creativecommons.org/ns#" xmlns:dc="http://purl.org/dc/elements/1.1/" xmlns:inkscape="http://www.inkscape.org/namespaces/inkscape" xmlns:rdf="http://www.w3.org/1999/02/22-rdf-syntax-ns#" xmlns:sodipodi="http://sodipodi.sourceforge.net/DTD/sodipodi-0.dtd" xmlns:svg="http://www.w3.org/2000/svg"
	 xmlns="http://www.w3.org/2000/svg" xmlns:xlink="http://www.w3.org/1999/xlink" x="0px" y="0px" viewBox="0 0 300 50.3"
	 style="enable-background:new 0 0 300 50.3;" xml:space="preserve">
<style type="text/css">
	.st0{fill:#FF008E;}
	.st1{fill:#FFFFFF;}
</style>
<sodipodi:namedview  bordercolor="#666666" borderopacity="1.0" fit-margin-bottom="0.5" fit-margin-left="0.5" fit-margin-right="0.5" fit-margin-top="0.5" gridtolerance="10000" guidetolerance="10" id="base" inkscape:current-layer="g3271" inkscape:cx="129.43572" inkscape:cy="43.595514" inkscape:document-units="px" inkscape:pageopacity="0.0" inkscape:pageshadow="2" inkscape:window-height="1007" inkscape:window-maximized="0" inkscape:window-width="1384" inkscape:window-x="526" inkscape:window-y="-18" inkscape:zoom="4" objecttolerance="10" pagecolor="#ffffff" showgrid="false">
	</sodipodi:namedview>
<path id="path3255" inkscape:connector-curvature="0" class="st0" d="M261.1,20.9c0.3-3.1,1.8-5.7,5.2-5.7c3.7,0,5.2,2.5,5.2,5.7
	H261.1z M214.2,31.4c-2.2,0-3.8-1.1-3.8-3c0-2.6,2.5-3.6,5.7-3.6c1.4,0,2.8,0.1,4,0.2C219.9,28.2,217.7,31.5,214.2,31.4 M177.8,18.5
	h-2.5V7.5h2.5c3.3,0,6,1.8,6,5.5C183.8,16.8,181.1,18.5,177.8,18.5 M254.2,14.8l1.9-4.8h-9.4l-5.6,17.7H241L235.1,10h-10.1l1.3,3.3
	l-0.2,0c-2.4-2.8-6.3-4-10.6-4c-4,0-6.1,0.5-9.6,1.5c0,0-2.1,6.3-2.2,6.6c-0.2,0.3,0.2,0.6,0.5,0.5c2.4-1.2,5.4-2.3,9.3-2.3
	c3.4,0,6.1,1,6.2,4.7c-1.2-0.2-2.9-0.4-4.4-0.4c-4,0-10.5,0.6-13,5.1l-0.2,0V0.5h-9.4v8.6l-0.2,0c-1.5-5.6-6.7-8.6-15.8-8.6h-11.6
	l0,9.7l-9.3-8.3c-1.1-0.9-2.2-1.4-4-1.4h-3.7c-1.6,0-3,1.4-3,3.1v5.7h9.1V6.7c0-0.9,1-1.3,1.7-0.7l13.1,11.7
	c0.6,0.6,0.7,1.3,0.1,1.9l-13.1,11.8c-0.7,0.6-1.7,0.1-1.7-0.7V13.6h-9.1v20.4c0,1.5,1.3,3,3,3h3.6c1.8,0,2.8-0.4,4-1.3l9.2-8.4v9.7
	h9.7V25.4h3.8c7.5,0,12.5-3.4,14-8.7l0.2,0v20.3h9.4v-3.8l0.2,0c1.7,3,5.2,4.3,9.1,4.4c4.7,0.1,7.3-2.2,8.3-2.8
	c0.3-0.2,0.4-0.2,0.5,0c0.1,0.8,0.2,1.6,0.2,2.2h8.6c-0.4-2.1-0.5-4.3-0.5-6.4V20.6c0-0.6-0.1-1.1-0.2-1.6l0.2,0l7.4,18.8
	c0,0-1.2,4.2-5.1,4.2c-1.6,0-2.6-0.2-4.1-0.9c-0.3-0.1-0.5,0-0.5,0.3l-2.3,6.9c1.3,0.7,4.7,1.8,8.3,1.8c7.9,0,11.4-8.7,13.7-14.6
	l5.7-14.4l0.2,0c-0.2,0.8-0.3,1.7-0.3,2.6c0,8.9,6.8,14.2,15.8,14.2c2.7,0,5.7-0.5,8-1.4c0,0,1.9-5.6,2.3-6.8
	c0.2-0.4-0.3-0.6-0.5-0.5c-2.3,1.3-5,2.4-8.1,2.4c-4.6,0-7.4-1.5-8-5.2h18.1v10.8h9.4V25.6c0-5.9,3.2-8.5,6.8-8.5
	c0.9,0,1.6,0.3,1.6,0.3l2.4-7.4c0.1-0.2-0.1-0.4-0.3-0.5c-0.8-0.1-1.8-0.2-2.7-0.2c-4,0-7,2.2-8.6,5.6h-0.2v-5h-8.5v8.9l-0.2,0
	c-1.5-5.5-5.4-9.5-13-9.5c-5.1,0-9.4,1.9-12,5.5L254.2,14.8z"/>
<path id="path3261" inkscape:connector-curvature="0" class="st1" d="M70,24.1c0,4-4.9,3.7-4.9,3.7h-4.9v-7.2h4.9
	C70.1,20.7,70,24.1,70,24.1 M60.1,9.7h3.8c3.9,0.2,3.8,3.1,3.8,3.1c0,3.6-4.3,3.7-4.3,3.7h-3.2V9.7z M69.1,18c0,0,3.4-1.4,3.4-5.3
	c0,0,0.5-6.3-7.8-7h-9.2v26.3H66c0,0,8.8,0,8.8-7.4C74.8,24.5,75,19.5,69.1,18 M45.2,0.5H84v36.6H45.2V0.5z"/>
<path id="path3265" inkscape:connector-curvature="0" class="st1" d="M25.3,24.1c0,4-4.9,3.7-4.9,3.7h-4.9v-7.2h4.9
	C25.4,20.7,25.3,24.1,25.3,24.1 M15.4,9.7h3.8c3.9,0.2,3.8,3.1,3.8,3.1c0,3.6-4.3,3.7-4.3,3.7h-3.2V9.7z M24.3,18
	c0,0,3.4-1.4,3.4-5.3c0,0,0.5-6.3-7.8-7h-9.2v26.3h10.6c0,0,8.8,0,8.8-7.4C30.1,24.5,30.3,19.5,24.3,18 M0.5,0.5h38.8v36.6H0.5V0.5z
	"/>
<path id="path3269" inkscape:connector-curvature="0" class="st1" d="M120.9,7.5v4.9c0,0-4.7-2.9-10-3c0,0-9.8-0.2-10.2,9.4
	c0,0-0.4,8.8,10.1,9.3c0,0,4.4,0.5,10.3-3.3v5c0,0-8,4.7-17.2,1.1c0,0-7.8-2.8-8.1-12.1c0,0-0.3-9.6,10-12.7c0,0,2.8-1.1,7.7-0.6
	C113.6,5.4,116.6,5.7,120.9,7.5 M90,37.1h38.8V0.5H90V37.1z"/>
</svg>
