<?xml version="1.0" encoding="UTF-8" standalone="no"?>
<!-- Created with Inkscape (http://www.inkscape.org/) -->

<svg
   xmlns:dc="http://purl.org/dc/elements/1.1/"
   xmlns:cc="http://creativecommons.org/ns#"
   xmlns:rdf="http://www.w3.org/1999/02/22-rdf-syntax-ns#"
   xmlns:svg="http://www.w3.org/2000/svg"
   xmlns="http://www.w3.org/2000/svg"
   xmlns:sodipodi="http://sodipodi.sourceforge.net/DTD/sodipodi-0.dtd"
   xmlns:inkscape="http://www.inkscape.org/namespaces/inkscape"
   width="26.458334mm"
   height="25.015045mm"
   viewBox="0 0 26.458334 25.015046"
   version="1.1"
   id="svg8"
   inkscape:version="0.92.3 (2405546, 2018-03-11)"
   sodipodi:docname="Word.svg">
  <defs
     id="defs2" />
  <sodipodi:namedview
     id="base"
     pagecolor="#ffffff"
     bordercolor="#666666"
     borderopacity="1.0"
     inkscape:pageopacity="0.0"
     inkscape:pageshadow="2"
     inkscape:zoom="2.1646365"
     inkscape:cx="51.557219"
     inkscape:cy="49.595119"
     inkscape:document-units="mm"
     inkscape:current-layer="layer1"
     showgrid="false"
     inkscape:pagecheckerboard="true"
     fit-margin-top="0"
     fit-margin-left="0"
     fit-margin-right="0"
     fit-margin-bottom="0"
     inkscape:window-width="806"
     inkscape:window-height="405"
     inkscape:window-x="752"
     inkscape:window-y="602"
     inkscape:window-maximized="0" />
  <metadata
     id="metadata5">
    <rdf:RDF>
      <cc:Work
         rdf:about="">
        <dc:format>image/svg+xml</dc:format>
        <dc:type
           rdf:resource="http://purl.org/dc/dcmitype/StillImage" />
        <dc:title></dc:title>
      </cc:Work>
    </rdf:RDF>
  </metadata>
  <g
     inkscape:label="Layer 1"
     inkscape:groupmode="layer"
     id="layer1"
     transform="translate(-78.274749,-155.24135)">
    <g
       transform="matrix(0.40972371,0,0,0.40972371,42.209756,110.06562)"
       id="layer1-2"
       inkscape:label="Layer 1">
      <path
         inkscape:connector-curvature="0"
         id="path192"
         d="m 106.03452,167.84304 c -9.60437,-1.70386 -17.49226,-3.10475 -17.52864,-3.11308 -0.0364,-0.008 -0.0662,-10.55219 -0.0662,-23.43079 0,-12.87859 0.0298,-23.4223 0.0662,-23.43047 0.0364,-0.008 7.95024,-1.41385 17.58636,-3.12374 l 17.52021,-3.10891 0.0746,2.79302 0.0746,2.79302 13.28821,0.13229 13.2882,0.13229 0.60242,0.60267 0.60242,0.60266 v 22.60717 22.60718 l -0.60242,0.60266 -0.60242,0.60266 -13.2882,0.13229 -13.28821,0.1323 -0.13229,2.78235 -0.13229,2.78236 z"
         style="fill:#ffffff;stroke-width:0.26458332" />
      <path
         inkscape:connector-curvature="0"
         id="path205"
         d="m 106.08053,168.07308 -18.057816,-3.21151 v -24.08301 -24.08302 l 17.925516,-3.14896 c 9.85904,-1.73194 18.13388,-3.20264 18.38855,-3.26824 0.42124,-0.10851 0.46302,0.15805 0.46302,2.9543 v 3.07357 h 12.95213 c 8.92884,0 13.15241,0.0913 13.59687,0.29376 0.3546,0.16156 0.77692,0.58388 0.93849,0.93849 0.41528,0.91144 0.41528,45.57197 0,46.48341 -0.16157,0.3546 -0.58389,0.77692 -0.93849,0.93849 -0.44446,0.20251 -4.66803,0.29376 -13.59687,0.29376 H 124.7998 v 3.04271 c 0,2.27243 -0.0837,3.03575 -0.33073,3.01523 -0.1819,-0.0151 -8.45675,-1.47265 -18.38854,-3.23898 z m 44.38385,-27.29292 V 118.42287 H 137.63209 124.7998 v 2.24896 2.24896 h 10.58333 10.58333 v 1.32292 1.32291 H 135.38313 124.7998 v 1.98438 1.98437 h 10.58333 10.58333 v 1.32292 1.32292 H 135.38313 124.7998 v 1.98437 1.98438 h 10.58333 10.58333 v 1.32291 1.32292 H 135.38313 124.7998 v 1.98437 1.98438 h 10.58333 10.58333 v 1.32291 1.32292 H 135.38313 124.7998 v 1.98438 1.98437 h 10.58333 10.58333 v 1.32292 1.32291 H 135.38313 124.7998 v 1.98438 1.98437 h 10.58333 10.58333 v 1.32292 1.32292 H 135.38313 124.7998 v 2.24896 2.24895 h 12.83229 12.83229 z m -38.58943,9.37696 c 0.24893,-0.45212 4.53207,-19.5803 4.40989,-19.69421 -0.0462,-0.0431 -0.93114,-0.0164 -1.96652,0.0592 l -1.88253,0.13755 -0.843,4.79565 c -0.46364,2.6376 -1.0357,5.90179 -1.27123,7.25375 l -0.42824,2.4581 -1.40212,-7.05808 c -0.77117,-3.88194 -1.44697,-7.10293 -1.50178,-7.15774 -0.0548,-0.0548 -0.91682,-0.009 -1.91557,0.10206 l -1.81591,0.20172 -1.45371,6.8281 -1.4537,6.82809 -0.853751,-5.37288 c -0.46956,-2.95509 -0.95514,-5.9682 -1.07906,-6.69581 l -0.22532,-1.32291 -1.57911,0.0942 c -0.86852,0.0518 -1.63487,0.14724 -1.70301,0.21209 -0.0983,0.0935 2.07414,11.47921 3.23564,16.95779 l 0.2384,1.12448 h 1.902101 1.90211 l 1.31399,-6.33157 c 0.7227,-3.48237 1.37467,-6.2709 1.44883,-6.19674 0.0742,0.0742 0.73063,3.01266 1.45883,6.53001 l 1.32399,6.39517 1.71979,0.15037 c 2.10031,0.18363 2.15962,0.17632 2.42099,-0.29841 z"
         style="fill:#295497;stroke-width:0.26458332" />
    </g>
  </g>
</svg>
